<?xml version="1.0" encoding="iso-8859-1"?>
<!-- Uploaded to: SVG Repo, www.svgrepo.com, Generator: SVG Repo Mixer Tools -->
<svg version="1.1" id="Layer_1" xmlns="http://www.w3.org/2000/svg" xmlns:xlink="http://www.w3.org/1999/xlink" 
	 viewBox="0 0 512 512" xml:space="preserve">
<g>
	<rect x="47.192" y="136.669" style="fill:#CCCCCC;" width="417.606" height="365.131"/>
	<rect x="47.192" y="10.199" style="fill:#CCCCCC;" width="417.606" height="53.036"/>
</g>
<rect x="47.192" y="63.235" style="fill:#FAD05B;" width="417.606" height="73.434"/>
<circle style="fill:#B3B3B3;" cx="256.001" cy="319.235" r="130.55"/>
<path style="fill:#CCCCCC;" d="M276.877,340.237c20.217,0,27.529-17.347,71.926-20.191c0.002-0.27,0.01-0.54,0.01-0.811
	c0-51.259-41.554-92.813-92.813-92.813s-92.813,41.554-92.813,92.813c0,3.423,0.191,6.802,0.553,10.129
	c9.01-5.665,22.857-11.149,42.763-11.149C247.675,318.215,256.771,340.237,276.877,340.237z"/>
<path style="fill:#FAD05B;" d="M276.877,340.237c-20.107,0-29.203-22.022-70.375-22.022c-19.906,0-33.753,5.484-42.763,11.149
	c5.048,46.493,44.426,82.684,92.261,82.684c50.988,0,92.366-41.117,92.803-92.002C304.406,322.89,297.094,340.237,276.877,340.237z"
	/>
<path d="M36.997,501.801c0,5.633,4.566,10.199,10.199,10.199h417.607c5.633,0,10.199-4.566,10.199-10.199V10.199
	C475.003,4.566,470.437,0,464.804,0H47.196c-5.633,0-10.199,4.566-10.199,10.199V501.801z M57.396,73.434h220.023v53.036H57.396
	V73.434z M297.817,73.434h101.992v53.036H297.817V73.434z M420.208,73.434h34.398v53.036h-34.398V73.434z M57.396,20.398h397.209
	v32.637H57.396V20.398z M454.606,491.602H57.396V146.869h397.209v344.733H454.606z"/>
<path d="M256.001,459.984c77.609,0,140.749-63.14,140.749-140.749s-63.14-140.749-140.749-140.749s-140.749,63.14-140.749,140.749
	S178.392,459.984,256.001,459.984z M256.001,198.884c66.361,0,120.351,53.989,120.351,120.351s-53.989,120.351-120.351,120.351
	S135.65,385.596,135.65,319.235S189.639,198.884,256.001,198.884z"/>
<path d="M256.001,422.247c27.358,0,53.121-10.611,72.542-29.878c19.405-19.252,30.222-44.902,30.46-72.226c0-0.001,0-0.002,0-0.004
	l0.004-0.246c0.003-0.219,0.007-0.439,0.007-0.659c0-56.8-46.212-103.012-103.012-103.012S152.99,262.435,152.99,319.235
	c0,3.709,0.206,7.487,0.612,11.228c0,0.003,0.001,0.007,0.002,0.01C159.287,382.793,203.306,422.247,256.001,422.247z
	 M256.001,401.849c-40.011,0-73.786-28.355-81.135-66.973c9.008-4.288,19.616-6.461,31.638-6.461
	c21.485,0,32.928,6.654,43.024,12.526c8.028,4.668,16.329,9.496,27.35,9.496c10.86,0,18.622-3.82,26.839-7.863
	c8.45-4.158,17.828-8.768,33.987-11.137C331.763,371.177,297.266,401.849,256.001,401.849z M256.001,236.622
	c42.703,0,77.943,32.572,82.186,74.175c-21.518,2.671-34.023,8.823-43.475,13.475c-7.058,3.473-11.72,5.767-17.833,5.767
	c-5.265,0-9.704-2.433-17.096-6.731c-11.097-6.453-26.294-15.291-53.279-15.291c-11.988,0-22.998,1.785-32.908,5.322
	C176.628,270.526,212.43,236.622,256.001,236.622z"/>
<path d="M223.324,296.583c10.3,2.144,17.705,5.64,25.004,9.337c1.478,0.749,3.051,1.103,4.601,1.103c3.722,0,7.31-2.045,9.107-5.593
	c2.546-5.025,0.534-11.162-4.491-13.707c-8.23-4.168-17.33-8.459-30.065-11.11c-5.516-1.146-10.915,2.392-12.064,7.906
	C214.269,290.034,217.81,295.435,223.324,296.583z"/>
<path d="M283.526,315.284c0.391,0,0.786-0.022,1.183-0.068c6.419-0.741,11.836-2.653,15.838-4.235
	c5.238-2.07,7.805-7.996,5.735-13.234c-2.07-5.238-7.994-7.805-13.234-5.735c-4.275,1.69-7.47,2.57-10.679,2.94
	c-5.595,0.647-9.608,5.706-8.962,11.303C274.007,311.453,278.416,315.284,283.526,315.284z"/>
<path d="M376.351,85.673h-5.1c-5.633,0-10.199,4.566-10.199,10.199s4.566,10.199,10.199,10.199h5.1
	c5.633,0,10.199-4.566,10.199-10.199S381.984,85.673,376.351,85.673z"/>
<path d="M339.634,85.673h-17.339c-5.633,0-10.199,4.566-10.199,10.199s4.566,10.199,10.199,10.199h17.339
	c5.633,0,10.199-4.566,10.199-10.199S345.267,85.673,339.634,85.673z"/>
<path d="M96.893,84.653c-8.436,0-15.299,6.863-15.299,15.299s6.863,15.299,15.299,15.299s15.299-6.863,15.299-15.299
	S105.329,84.653,96.893,84.653z M96.893,105.052c-2.812,0-5.1-2.288-5.1-5.1s2.288-5.1,5.1-5.1c2.812,0,5.1,2.288,5.1,5.1
	S99.705,105.052,96.893,105.052z"/>
<path d="M145.849,84.653c-8.436,0-15.299,6.863-15.299,15.299s6.863,15.299,15.299,15.299s15.299-6.863,15.299-15.299
	S154.285,84.653,145.849,84.653z M145.849,105.052c-2.812,0-5.1-2.288-5.1-5.1s2.288-5.1,5.1-5.1s5.1,2.288,5.1,5.1
	S148.661,105.052,145.849,105.052z"/>
</svg>